<svg xmlns="http://www.w3.org/2000/svg" version="1.1" width="41.208in" height="14.972in" viewBox = " 0 0 3708.72 1347.48" >
<!-- Front--> 
<g transform="translate(22.5, 22.5) " > 
<polygon style="stroke:#000000; fill:none; stroke-width:0.9" points="0, 0 89.68500000000002, 0 89.68500000000002, 10.62 179.37000000000003, 10.62 179.37000000000003, 0 246.87000000000003, 0 246.87000000000003, 10.62 314.37, 10.62 314.37, 0 381.87, 0 381.87, 10.62 449.37, 10.62 449.37, 0 516.87, 0 516.87, 10.62 584.37, 10.62 584.37, 0 651.87, 0 651.87, 10.62 719.37, 10.62 719.37, 0 786.87, 0 786.87, 10.62 854.37, 10.62 854.37, 0 921.87, 0 921.87, 10.62 989.37, 10.62 989.37, 0 1056.8700000000001, 0 1056.8700000000001, 10.62 1124.3700000000001, 10.62 1124.3700000000001, 0 1191.8700000000001, 0 1191.8700000000001, 10.62 1259.3700000000001, 10.62 1259.3700000000001, 0 1326.8700000000001, 0 1326.8700000000001, 10.62 1394.3700000000001, 10.62 1394.3700000000001, 0 1461.8700000000001, 0 1461.8700000000001, 10.62 1551.555, 10.62 1551.555, 0 1641.24, 0 1641.24, 112.18499999999999 1630.6200000000001, 112.18499999999999 1630.6200000000001, 224.36999999999998 1641.24, 224.36999999999998 1641.24, 291.87 1630.6200000000001, 291.87 1630.6200000000001, 359.37 1641.24, 359.37 1641.24, 426.87 1630.6200000000001, 426.87 1630.6200000000001, 539.055 1641.24, 539.055 1641.24, 651.24 1551.555, 651.24 1551.555, 640.62 1461.8700000000001, 640.62 1461.8700000000001, 651.24 1394.3700000000001, 651.24 1394.3700000000001, 640.62 1326.8700000000001, 640.62 1326.8700000000001, 651.24 1259.3700000000001, 651.24 1259.3700000000001, 640.62 1191.8700000000001, 640.62 1191.8700000000001, 651.24 1124.3700000000001, 651.24 1124.3700000000001, 640.62 1056.8700000000001, 640.62 1056.8700000000001, 651.24 989.37, 651.24 989.37, 640.62 921.87, 640.62 921.87, 651.24 854.37, 651.24 854.37, 640.62 786.87, 640.62 786.87, 651.24 719.37, 651.24 719.37, 640.62 651.87, 640.62 651.87, 651.24 584.37, 651.24 584.37, 640.62 516.87, 640.62 516.87, 651.24 449.37, 651.24 449.37, 640.62 381.87, 640.62 381.87, 651.24 314.37, 651.24 314.37, 640.62 246.87000000000003, 640.62 246.87000000000003, 651.24 179.37000000000003, 651.24 179.37000000000003, 640.62 89.68500000000002, 640.62 89.68500000000002, 651.24 0, 651.24 0, 539.055 10.62, 539.055 10.62, 426.87 0, 426.87 0, 359.37 10.62, 359.37 10.62, 291.87 0, 291.87 0, 224.36999999999998 10.62, 224.36999999999998 10.62, 112.18499999999999 0, 112.18499999999999 "/> 
</g>
<!-- Back--> 
<g transform="translate(1663.74, 22.5) " > 
<polygon style="stroke:#000000; fill:none; stroke-width:0.9" points="0, 0 89.68500000000002, 0 89.68500000000002, 10.62 179.37000000000003, 10.62 179.37000000000003, 0 246.87000000000003, 0 246.87000000000003, 10.62 314.37, 10.62 314.37, 0 381.87, 0 381.87, 10.62 449.37, 10.62 449.37, 0 516.87, 0 516.87, 10.62 584.37, 10.62 584.37, 0 651.87, 0 651.87, 10.62 719.37, 10.62 719.37, 0 786.87, 0 786.87, 10.62 854.37, 10.62 854.37, 0 921.87, 0 921.87, 10.62 989.37, 10.62 989.37, 0 1056.8700000000001, 0 1056.8700000000001, 10.62 1124.3700000000001, 10.62 1124.3700000000001, 0 1191.8700000000001, 0 1191.8700000000001, 10.62 1259.3700000000001, 10.62 1259.3700000000001, 0 1326.8700000000001, 0 1326.8700000000001, 10.62 1394.3700000000001, 10.62 1394.3700000000001, 0 1461.8700000000001, 0 1461.8700000000001, 10.62 1551.555, 10.62 1551.555, 0 1641.24, 0 1641.24, 112.18499999999999 1630.6200000000001, 112.18499999999999 1630.6200000000001, 224.36999999999998 1641.24, 224.36999999999998 1641.24, 291.87 1630.6200000000001, 291.87 1630.6200000000001, 359.37 1641.24, 359.37 1641.24, 426.87 1630.6200000000001, 426.87 1630.6200000000001, 539.055 1641.24, 539.055 1641.24, 651.24 1551.555, 651.24 1551.555, 640.62 1461.8700000000001, 640.62 1461.8700000000001, 651.24 1394.3700000000001, 651.24 1394.3700000000001, 640.62 1326.8700000000001, 640.62 1326.8700000000001, 651.24 1259.3700000000001, 651.24 1259.3700000000001, 640.62 1191.8700000000001, 640.62 1191.8700000000001, 651.24 1124.3700000000001, 651.24 1124.3700000000001, 640.62 1056.8700000000001, 640.62 1056.8700000000001, 651.24 989.37, 651.24 989.37, 640.62 921.87, 640.62 921.87, 651.24 854.37, 651.24 854.37, 640.62 786.87, 640.62 786.87, 651.24 719.37, 651.24 719.37, 640.62 651.87, 640.62 651.87, 651.24 584.37, 651.24 584.37, 640.62 516.87, 640.62 516.87, 651.24 449.37, 651.24 449.37, 640.62 381.87, 640.62 381.87, 651.24 314.37, 651.24 314.37, 640.62 246.87000000000003, 640.62 246.87000000000003, 651.24 179.37000000000003, 651.24 179.37000000000003, 640.62 89.68500000000002, 640.62 89.68500000000002, 651.24 0, 651.24 0, 539.055 10.62, 539.055 10.62, 426.87 0, 426.87 0, 359.37 10.62, 359.37 10.62, 291.87 0, 291.87 0, 224.36999999999998 10.62, 224.36999999999998 10.62, 112.18499999999999 0, 112.18499999999999 "/> 
</g>
<!-- Left--> 
<g transform="translate(3304.98, 22.5) " > 
<polygon style="stroke:#000000; fill:none; stroke-width:0.9" points="10.62, 0 76.24799999999999, 0 76.24799999999999, 10.62 152.49599999999998, 10.62 152.49599999999998, 0 228.74399999999997, 0 228.74399999999997, 10.62 304.99199999999996, 10.62 304.99199999999996, 0 370.61999999999995, 0 370.61999999999995, 112.18499999999999 381.23999999999995, 112.18499999999999 381.23999999999995, 224.36999999999998 370.61999999999995, 224.36999999999998 370.61999999999995, 291.87 381.23999999999995, 291.87 381.23999999999995, 359.37 370.61999999999995, 359.37 370.61999999999995, 426.87 381.23999999999995, 426.87 381.23999999999995, 539.055 370.61999999999995, 539.055 370.61999999999995, 651.24 304.99199999999996, 651.24 304.99199999999996, 640.62 228.74399999999997, 640.62 228.74399999999997, 651.24 152.49599999999998, 651.24 152.49599999999998, 640.62 76.24799999999999, 640.62 76.24799999999999, 651.24 10.62, 651.24 10.62, 539.055 0, 539.055 0, 426.87 10.62, 426.87 10.62, 359.37 0, 359.37 0, 291.87 10.62, 291.87 10.62, 224.36999999999998 0, 224.36999999999998 0, 112.18499999999999 10.62, 112.18499999999999 "/> 
</g>
<!-- Right--> 
<g transform="translate(3304.98, 673.74) " > 
<polygon style="stroke:#000000; fill:none; stroke-width:0.9" points="10.62, 0 76.24799999999999, 0 76.24799999999999, 10.62 152.49599999999998, 10.62 152.49599999999998, 0 228.74399999999997, 0 228.74399999999997, 10.62 304.99199999999996, 10.62 304.99199999999996, 0 370.61999999999995, 0 370.61999999999995, 112.18499999999999 381.23999999999995, 112.18499999999999 381.23999999999995, 224.36999999999998 370.61999999999995, 224.36999999999998 370.61999999999995, 291.87 381.23999999999995, 291.87 381.23999999999995, 359.37 370.61999999999995, 359.37 370.61999999999995, 426.87 381.23999999999995, 426.87 381.23999999999995, 539.055 370.61999999999995, 539.055 370.61999999999995, 651.24 304.99199999999996, 651.24 304.99199999999996, 640.62 228.74399999999997, 640.62 228.74399999999997, 651.24 152.49599999999998, 651.24 152.49599999999998, 640.62 76.24799999999999, 640.62 76.24799999999999, 651.24 10.62, 651.24 10.62, 539.055 0, 539.055 0, 426.87 10.62, 426.87 10.62, 359.37 0, 359.37 0, 291.87 10.62, 291.87 10.62, 224.36999999999998 0, 224.36999999999998 0, 112.18499999999999 10.62, 112.18499999999999 "/> 
</g>
<!-- Top--> 
<g transform="translate(22.5, 673.74) " > 
<polygon style="stroke:#000000; fill:none; stroke-width:0.9" points="10.62, 10.62 89.68500000000002, 10.62 89.68500000000002, 0 179.37000000000003, 0 179.37000000000003, 10.62 246.87000000000003, 10.62 246.87000000000003, 0 314.37, 0 314.37, 10.62 381.87, 10.62 381.87, 0 449.37, 0 449.37, 10.62 516.87, 10.62 516.87, 0 584.37, 0 584.37, 10.62 651.87, 10.62 651.87, 0 719.37, 0 719.37, 10.62 786.87, 10.62 786.87, 0 854.37, 0 854.37, 10.62 921.87, 10.62 921.87, 0 989.37, 0 989.37, 10.62 1056.8700000000001, 10.62 1056.8700000000001, 0 1124.3700000000001, 0 1124.3700000000001, 10.62 1191.8700000000001, 10.62 1191.8700000000001, 0 1259.3700000000001, 0 1259.3700000000001, 10.62 1326.8700000000001, 10.62 1326.8700000000001, 0 1394.3700000000001, 0 1394.3700000000001, 10.62 1461.8700000000001, 10.62 1461.8700000000001, 0 1551.555, 0 1551.555, 10.62 1630.6200000000001, 10.62 1630.6200000000001, 76.24799999999999 1641.24, 76.24799999999999 1641.24, 152.49599999999998 1630.6200000000001, 152.49599999999998 1630.6200000000001, 228.74399999999997 1641.24, 228.74399999999997 1641.24, 304.99199999999996 1630.6200000000001, 304.99199999999996 1630.6200000000001, 370.61999999999995 1551.555, 370.61999999999995 1551.555, 381.23999999999995 1461.8700000000001, 381.23999999999995 1461.8700000000001, 370.61999999999995 1394.3700000000001, 370.61999999999995 1394.3700000000001, 381.23999999999995 1326.8700000000001, 381.23999999999995 1326.8700000000001, 370.61999999999995 1259.3700000000001, 370.61999999999995 1259.3700000000001, 381.23999999999995 1191.8700000000001, 381.23999999999995 1191.8700000000001, 370.61999999999995 1124.3700000000001, 370.61999999999995 1124.3700000000001, 381.23999999999995 1056.8700000000001, 381.23999999999995 1056.8700000000001, 370.61999999999995 989.37, 370.61999999999995 989.37, 381.23999999999995 921.87, 381.23999999999995 921.87, 370.61999999999995 854.37, 370.61999999999995 854.37, 381.23999999999995 786.87, 381.23999999999995 786.87, 370.61999999999995 719.37, 370.61999999999995 719.37, 381.23999999999995 651.87, 381.23999999999995 651.87, 370.61999999999995 584.37, 370.61999999999995 584.37, 381.23999999999995 516.87, 381.23999999999995 516.87, 370.61999999999995 449.37, 370.61999999999995 449.37, 381.23999999999995 381.87, 381.23999999999995 381.87, 370.61999999999995 314.37, 370.61999999999995 314.37, 381.23999999999995 246.87000000000003, 381.23999999999995 246.87000000000003, 370.61999999999995 179.37000000000003, 370.61999999999995 179.37000000000003, 381.23999999999995 89.68500000000002, 381.23999999999995 89.68500000000002, 370.61999999999995 10.62, 370.61999999999995 10.62, 304.99199999999996 0, 304.99199999999996 0, 228.74399999999997 10.62, 228.74399999999997 10.62, 152.49599999999998 0, 152.49599999999998 0, 76.24799999999999 10.62, 76.24799999999999 "/> 
</g>
<!-- Bottom--> 
<g transform="translate(1663.74, 673.74) " > 
<polygon style="stroke:#000000; fill:none; stroke-width:0.9" points="10.62, 10.62 89.68500000000002, 10.62 89.68500000000002, 0 179.37000000000003, 0 179.37000000000003, 10.62 246.87000000000003, 10.62 246.87000000000003, 0 314.37, 0 314.37, 10.62 381.87, 10.62 381.87, 0 449.37, 0 449.37, 10.62 516.87, 10.62 516.87, 0 584.37, 0 584.37, 10.62 651.87, 10.62 651.87, 0 719.37, 0 719.37, 10.62 786.87, 10.62 786.87, 0 854.37, 0 854.37, 10.62 921.87, 10.62 921.87, 0 989.37, 0 989.37, 10.62 1056.8700000000001, 10.62 1056.8700000000001, 0 1124.3700000000001, 0 1124.3700000000001, 10.62 1191.8700000000001, 10.62 1191.8700000000001, 0 1259.3700000000001, 0 1259.3700000000001, 10.62 1326.8700000000001, 10.62 1326.8700000000001, 0 1394.3700000000001, 0 1394.3700000000001, 10.62 1461.8700000000001, 10.62 1461.8700000000001, 0 1551.555, 0 1551.555, 10.62 1630.6200000000001, 10.62 1630.6200000000001, 76.24799999999999 1641.24, 76.24799999999999 1641.24, 152.49599999999998 1630.6200000000001, 152.49599999999998 1630.6200000000001, 228.74399999999997 1641.24, 228.74399999999997 1641.24, 304.99199999999996 1630.6200000000001, 304.99199999999996 1630.6200000000001, 370.61999999999995 1551.555, 370.61999999999995 1551.555, 381.23999999999995 1461.8700000000001, 381.23999999999995 1461.8700000000001, 370.61999999999995 1394.3700000000001, 370.61999999999995 1394.3700000000001, 381.23999999999995 1326.8700000000001, 381.23999999999995 1326.8700000000001, 370.61999999999995 1259.3700000000001, 370.61999999999995 1259.3700000000001, 381.23999999999995 1191.8700000000001, 381.23999999999995 1191.8700000000001, 370.61999999999995 1124.3700000000001, 370.61999999999995 1124.3700000000001, 381.23999999999995 1056.8700000000001, 381.23999999999995 1056.8700000000001, 370.61999999999995 989.37, 370.61999999999995 989.37, 381.23999999999995 921.87, 381.23999999999995 921.87, 370.61999999999995 854.37, 370.61999999999995 854.37, 381.23999999999995 786.87, 381.23999999999995 786.87, 370.61999999999995 719.37, 370.61999999999995 719.37, 381.23999999999995 651.87, 381.23999999999995 651.87, 370.61999999999995 584.37, 370.61999999999995 584.37, 381.23999999999995 516.87, 381.23999999999995 516.87, 370.61999999999995 449.37, 370.61999999999995 449.37, 381.23999999999995 381.87, 381.23999999999995 381.87, 370.61999999999995 314.37, 370.61999999999995 314.37, 381.23999999999995 246.87000000000003, 381.23999999999995 246.87000000000003, 370.61999999999995 179.37000000000003, 370.61999999999995 179.37000000000003, 381.23999999999995 89.68500000000002, 381.23999999999995 89.68500000000002, 370.61999999999995 10.62, 370.61999999999995 10.62, 304.99199999999996 0, 304.99199999999996 0, 228.74399999999997 10.62, 228.74399999999997 10.62, 152.49599999999998 0, 152.49599999999998 0, 76.24799999999999 10.62, 76.24799999999999 "/> 
</g></svg>